<svg viewBox="-18 1 511 511.999" xmlns="http://www.w3.org/2000/svg"><path d="m427.152344 343.820312h-378.507813c-13.003906 0-23.546875 10.542969-23.546875 23.546876v20.625c0 5.117187 4.152344 9.269531 9.269532 9.269531h407.0625c5.117187 0 9.269531-4.152344 9.269531-9.269531v-20.625c0-13.003907-10.542969-23.546876-23.546875-23.546876zm0 0" fill="#fc4e51"/><path d="m427.152344 343.820312h-59.445313c13.003907 0 23.542969 10.542969 23.542969 23.546876v29.890624h50.179688c5.121093 0 9.269531-4.148437 9.269531-9.269531v-20.621093c0-13.003907-10.542969-23.546876-23.546875-23.546876zm0 0" fill="#ea3942"/><path d="m427.152344 235.972656h-378.507813c-13.003906 0-23.546875-10.539062-23.546875-23.542968v-29.894532h425.601563v29.894532c0 13.003906-10.542969 23.542968-23.546875 23.542968zm0 0" fill="#fc4e51"/><path d="m391.25 182.535156v29.894532c0 13.003906-10.539062 23.542968-23.542969 23.542968h59.445313c13.003906 0 23.546875-10.539062 23.546875-23.542968v-29.894532zm0 0" fill="#ea3942"/><path d="m427.152344 322.96875h-378.507813c-13.003906 0-23.546875-10.542969-23.546875-23.546875v-44.632813h425.601563v44.632813c0 13.003906-10.542969 23.546875-23.546875 23.546875zm0 0" fill="#912c2c"/><path d="m391.25 254.789062v44.632813c0 13.003906-10.539062 23.546875-23.542969 23.546875h59.445313c13.003906 0 23.546875-10.542969 23.546875-23.546875v-44.632813zm0 0" fill="#7c1e1e"/><path d="m456.019531 392.511719h-436.242187c-10.648438 0-19.277344 8.632812-19.277344 19.277343 0 55.34375 44.867188 100.210938 100.210938 100.210938h274.375c55.34375 0 100.210937-44.867188 100.210937-100.210938 0-10.644531-8.628906-19.277343-19.277344-19.277343zm0 0" fill="#efa335"/><path d="m456.019531 392.511719h-40.171875v19.277343c0 55.34375-44.863281 100.210938-100.207031 100.210938h59.445313c55.34375 0 100.210937-44.867188 100.210937-100.210938 0-10.644531-8.628906-19.277343-19.277344-19.277343zm0 0" fill="#fd8f31"/><path d="m445.960938 230.761719c12.425781 0 22.902343 10.179687 22.910156 22.960937.011718 18.253906-21.078125 27.910156-45.582032 24.375-22.882812-3.304687-23.171874-13.691406-46.34375-13.691406-23.175781 0-23.175781 13.691406-46.351562 13.691406-23.171875 0-23.171875-13.691406-46.347656-13.691406-23.171875 0-23.171875 13.691406-46.34375 13.691406-23.175782 0-23.175782-13.691406-46.347656-13.691406-23.175782 0-23.175782 13.691406-46.347657 13.691406-23.175781 0-23.175781-13.691406-46.347656-13.691406-23.175781 0-23.464844 10.386719-46.347656 13.691406-24.503907 3.539063-45.59375-6.121094-45.582031-24.375.011718-12.78125 10.484374-22.960937 22.910156-22.960937zm0 0" fill="#a0e557"/><path d="m451.65625 312.175781h-427.027344c-9.269531 0-17.246094 7.121094-17.683594 16.382813-.464843 9.882812 7.414063 18.046875 17.195313 18.046875h203.992187c10.5625 0 21 2.21875 30.648438 6.511719l63.4375 28.230468c15.820312 7.039063 34.015625 6.332032 49.242188-1.917968l43.800781-23.726563c11.027343-5.972656 23.367187-9.097656 35.90625-9.097656 9.269531 0 17.246093-7.125 17.683593-16.382813.464844-9.886718-7.414062-18.046875-17.195312-18.046875zm0 0" fill="#fccf3f"/><path d="m237.898438 0c-221.03125.0820312-237.398438 145.894531-237.398438 166.542969 0 10.644531 8.628906 19.273437 19.277344 19.273437h436.242187c10.648438 0 19.277344-8.628906 19.277344-19.273437 0-20.648438-16.367187-166.4609378-237.398437-166.542969zm0 0" fill="#efa335"/><path d="m475.28125 165.414062c0-.023437 0-.046874 0-.070312-.011719-.394531-.027344-.816406-.046875-1.269531 0-.035157-.003906-.070313-.003906-.101563-.023438-.457031-.050781-.941406-.082031-1.449218 0-.035157-.003907-.066407-.007813-.101563-.035156-.527344-.074219-1.078125-.125-1.664063 0-.019531-.003906-.039062-.003906-.058593-.207031-2.449219-.546875-5.382813-1.078125-8.71875-6.796875-42.835938-44.871094-151.9101565-236.035156-151.980469-10.351563.00390625-20.25.328125-29.722657.941406 144.667969 9.398438 189.15625 86.84375 202.355469 133.242188 4.277344 15.046875-7.136719 29.988281-22.777344 29.988281h-367.976562c-8.140625 0-15.089844-5.054687-17.914063-12.191406-1.0625 6.691406-1.363281 11.773437-1.363281 14.5625 0 10.644531 8.628906 19.277343 19.277344 19.277343h436.242187c10.648438 0 19.277344-8.632812 19.277344-19.277343 0-.34375-.003906-.722657-.015625-1.128907zm0 0" fill="#fd8f31"/><path d="m468.648438 250.597656c-1.550782-11.273437-11.296876-19.835937-22.6875-19.835937h-36.757813v43.613281c3.699219 1.515625 8.121094 2.859375 14.085937 3.722656 23.054688 3.328125 43.085938-5.03125 45.359376-21.234375zm0 0" fill="#93cc4a"/><path d="m468.648438 326.632812c-1.320313-8.195312-8.425782-14.457031-16.992188-14.457031h-42.453125v46.8125l6.058594-3.285156c11.027343-5.96875 23.367187-9.097656 35.90625-9.097656 8.632812 0 16.140625-6.183594 17.480469-14.511719zm0 0" fill="#efc03c"/></svg>