<svg xmlns="http://www.w3.org/2000/svg" xmlns:xlink="http://www.w3.org/1999/xlink" width="847.325" height="153.517" viewBox="0 0 847.325 153.517">
  <defs>
    <linearGradient id="linear-gradient" x1="0.5" y1="1" x2="0.5" gradientUnits="objectBoundingBox">
      <stop offset="0" stop-color="#21c2fd"/>
      <stop offset="1" stop-color="#1fd2fb"/>
    </linearGradient>
    <filter id="Path_70" x="0.004" y="20.418" width="88.481" height="90.749" filterUnits="userSpaceOnUse">
      <feOffset dx="-1" input="SourceAlpha"/>
      <feGaussianBlur stdDeviation="6" result="blur"/>
      <feFlood flood-opacity="0.161"/>
      <feComposite operator="in" in2="blur"/>
      <feComposite in="SourceGraphic"/>
    </filter>
    <linearGradient id="linear-gradient-2" x1="0.5" x2="0.5" y2="1" gradientUnits="objectBoundingBox">
      <stop offset="0" stop-color="#feb22a"/>
      <stop offset="1" stop-color="#fee07f"/>
    </linearGradient>
    <filter id="Path_68" x="0" y="62.749" width="88.112" height="90.768" filterUnits="userSpaceOnUse">
      <feOffset dx="-1" input="SourceAlpha"/>
      <feGaussianBlur stdDeviation="6" result="blur-2"/>
      <feFlood flood-opacity="0.161"/>
      <feComposite operator="in" in2="blur-2"/>
      <feComposite in="SourceGraphic"/>
    </filter>
    <linearGradient id="linear-gradient-3" x1="0.5" x2="0.5" y2="1" gradientUnits="objectBoundingBox">
      <stop offset="0" stop-color="#fe9125"/>
      <stop offset="1" stop-color="#fc491e"/>
    </linearGradient>
    <filter id="Path_67" x="55.998" y="61.179" width="88.112" height="90.716" filterUnits="userSpaceOnUse">
      <feOffset dx="-1" input="SourceAlpha"/>
      <feGaussianBlur stdDeviation="6" result="blur-3"/>
      <feFlood flood-opacity="0.161"/>
      <feComposite operator="in" in2="blur-3"/>
      <feComposite in="SourceGraphic"/>
    </filter>
    <linearGradient id="linear-gradient-4" x1="0.5" x2="0.5" y2="1" gradientUnits="objectBoundingBox">
      <stop offset="0" stop-color="#2ebe21"/>
      <stop offset="1" stop-color="#7bdb27"/>
    </linearGradient>
    <filter id="Path_69" x="76.337" y="0" width="88.481" height="90.749" filterUnits="userSpaceOnUse">
      <feOffset dx="-1" input="SourceAlpha"/>
      <feGaussianBlur stdDeviation="6" result="blur-4"/>
      <feFlood flood-opacity="0.161"/>
      <feComposite operator="in" in2="blur-4"/>
      <feComposite in="SourceGraphic"/>
    </filter>
  </defs>
  <g id="Group_42" data-name="Group 42" transform="translate(-265.369 -1676.388)">
    <path id="Path_75" data-name="Path 75" d="M55.836-49.1V0H44.055L42.669-5.247A13.786,13.786,0,0,1,35.788-.1a27.2,27.2,0,0,1-8.365,1.287,22.789,22.789,0,0,1-9.653-2.03A24.186,24.186,0,0,1,10.1-6.385,25.554,25.554,0,0,1,5-14.6,27.442,27.442,0,0,1,3.168-24.651,27.442,27.442,0,0,1,5-34.7a25.554,25.554,0,0,1,5.1-8.217,24.186,24.186,0,0,1,7.673-5.544,22.789,22.789,0,0,1,9.653-2.029,24.632,24.632,0,0,1,8.712,1.485,14.746,14.746,0,0,1,6.534,4.752L44.055-49.1ZM42.174-24.453a17.683,17.683,0,0,0-1.04-6.485,11.629,11.629,0,0,0-2.772-4.257A10.479,10.479,0,0,0,34.3-37.57a16.354,16.354,0,0,0-5-.743,11.646,11.646,0,0,0-5,1.089A13.915,13.915,0,0,0,20.2-34.3a12.941,12.941,0,0,0-2.772,4.356,14.378,14.378,0,0,0-.99,5.3,14.262,14.262,0,0,0,.99,5.346A13.056,13.056,0,0,0,20.2-15a13.915,13.915,0,0,0,4.109,2.92,11.646,11.646,0,0,0,5,1.089,13.112,13.112,0,0,0,9.058-3.316Q42.075-17.622,42.174-24.453ZM93.06-50.49a23.124,23.124,0,0,1,9.7,2.029,23.472,23.472,0,0,1,7.673,5.544,26.016,26.016,0,0,1,5.049,8.217,27.442,27.442,0,0,1,1.831,10.048A27.442,27.442,0,0,1,115.484-14.6a26.016,26.016,0,0,1-5.049,8.217,23.472,23.472,0,0,1-7.673,5.544,23.124,23.124,0,0,1-9.7,2.03A23.336,23.336,0,0,1,84.744-.347a16.9,16.9,0,0,1-6.336-3.91V19.6H64.746V-49.1H76.428l1.98,3.366A16.986,16.986,0,0,1,84.843-49.4,28.161,28.161,0,0,1,93.06-50.49Zm-1.782,39.5a11.646,11.646,0,0,0,5-1.089A13.284,13.284,0,0,0,100.337-15a14.2,14.2,0,0,0,2.772-4.306,13.664,13.664,0,0,0,1.039-5.346,13.776,13.776,0,0,0-1.039-5.3,14.046,14.046,0,0,0-2.772-4.356,13.284,13.284,0,0,0-4.059-2.92,11.646,11.646,0,0,0-5-1.089,16.354,16.354,0,0,0-5,.743,10.48,10.48,0,0,0-4.059,2.376A11.142,11.142,0,0,0,79.5-30.937a17.829,17.829,0,0,0-.99,6.287,16.383,16.383,0,0,0,.99,5.989A12.257,12.257,0,0,0,82.219-14.4a10.923,10.923,0,0,0,4.059,2.574A14.588,14.588,0,0,0,91.278-10.989Zm60.291-39.5a23.124,23.124,0,0,1,9.7,2.029,23.472,23.472,0,0,1,7.673,5.544,26.015,26.015,0,0,1,5.049,8.217,27.442,27.442,0,0,1,1.832,10.048A27.442,27.442,0,0,1,173.992-14.6a26.015,26.015,0,0,1-5.049,8.217,23.472,23.472,0,0,1-7.673,5.544,23.124,23.124,0,0,1-9.7,2.03,23.336,23.336,0,0,1-8.316-1.534,16.9,16.9,0,0,1-6.336-3.91V19.6H123.255V-49.1h11.682l1.98,3.366a16.986,16.986,0,0,1,6.435-3.663A28.161,28.161,0,0,1,151.569-50.49Zm-1.782,39.5a11.646,11.646,0,0,0,5-1.089A13.284,13.284,0,0,0,158.845-15a14.2,14.2,0,0,0,2.772-4.306,13.664,13.664,0,0,0,1.04-5.346,13.776,13.776,0,0,0-1.04-5.3,14.046,14.046,0,0,0-2.772-4.356,13.284,13.284,0,0,0-4.059-2.92,11.646,11.646,0,0,0-5-1.089,16.354,16.354,0,0,0-5,.743,10.479,10.479,0,0,0-4.059,2.376,11.142,11.142,0,0,0-2.723,4.257,17.829,17.829,0,0,0-.99,6.287,16.383,16.383,0,0,0,.99,5.989,12.257,12.257,0,0,0,2.723,4.257,10.923,10.923,0,0,0,4.059,2.574A14.589,14.589,0,0,0,149.787-10.989ZM219.582-49.1h14.949L203.544,19.6H188.6L200.772-7.425,179.982-49.1h15.246L208-23.463Zm49.005-1.386a23.124,23.124,0,0,1,9.7,2.029,23.472,23.472,0,0,1,7.672,5.544A26.016,26.016,0,0,1,291.01-34.7a27.442,27.442,0,0,1,1.831,10.048A27.442,27.442,0,0,1,291.01-14.6a26.016,26.016,0,0,1-5.049,8.217,23.472,23.472,0,0,1-7.672,5.544,23.124,23.124,0,0,1-9.7,2.03,23.336,23.336,0,0,1-8.316-1.534,16.9,16.9,0,0,1-6.336-3.91V19.6H240.273V-49.1h11.682l1.98,3.366A16.986,16.986,0,0,1,260.37-49.4,28.161,28.161,0,0,1,268.587-50.49Zm-1.782,39.5a11.646,11.646,0,0,0,5-1.089A13.284,13.284,0,0,0,275.863-15a14.2,14.2,0,0,0,2.772-4.306,13.665,13.665,0,0,0,1.039-5.346,13.776,13.776,0,0,0-1.039-5.3,14.046,14.046,0,0,0-2.772-4.356,13.284,13.284,0,0,0-4.059-2.92,11.646,11.646,0,0,0-5-1.089,16.354,16.354,0,0,0-5,.743,10.479,10.479,0,0,0-4.059,2.376,11.142,11.142,0,0,0-2.723,4.257,17.829,17.829,0,0,0-.99,6.287,16.383,16.383,0,0,0,.99,5.989,12.257,12.257,0,0,0,2.723,4.257,10.923,10.923,0,0,0,4.059,2.574A14.588,14.588,0,0,0,266.8-10.989ZM313.533,0H299.871V-49.1h13.662ZM306.7-55.836a7.268,7.268,0,0,1-5.346-2.178,7.268,7.268,0,0,1-2.178-5.346,7.434,7.434,0,0,1,2.178-5.4,7.186,7.186,0,0,1,5.346-2.228,7.186,7.186,0,0,1,5.346,2.228,7.434,7.434,0,0,1,2.178,5.4,7.268,7.268,0,0,1-2.178,5.346A7.268,7.268,0,0,1,306.7-55.836Zm41.283,5.346a22.672,22.672,0,0,1,10.1,2.227,25.567,25.567,0,0,1,7.821,5.841,26.024,26.024,0,0,1,5.049,8.316,27.027,27.027,0,0,1,1.782,9.653,27.722,27.722,0,0,1-.792,6.336H336.9a16.9,16.9,0,0,0,5.643,5.693,14.5,14.5,0,0,0,7.92,2.326,35.794,35.794,0,0,0,7.475-.693,42.2,42.2,0,0,0,6.089-1.782l4.554,8.415A28.381,28.381,0,0,1,360.211-.2a35.381,35.381,0,0,1-10.048,1.386,28.925,28.925,0,0,1-10.89-2.03,28.619,28.619,0,0,1-8.811-5.495,25.479,25.479,0,0,1-5.94-8.217,23.95,23.95,0,0,1-2.178-10.1,25.377,25.377,0,0,1,1.98-9.949,25.476,25.476,0,0,1,5.494-8.217,27.036,27.036,0,0,1,8.168-5.593A24.229,24.229,0,0,1,347.985-50.49Zm11.187,21.78a13.9,13.9,0,0,0-4.257-6.93,10.272,10.272,0,0,0-6.93-2.673,10.955,10.955,0,0,0-7.177,2.673,13.475,13.475,0,0,0-4.406,6.93Zm97.119-43.56V0h-7.623l-1.98-4.95a21.629,21.629,0,0,1-6.534,4.5,20.474,20.474,0,0,1-8.415,1.633,21.362,21.362,0,0,1-9.108-1.93,22.506,22.506,0,0,1-7.227-5.3,24.6,24.6,0,0,1-4.8-7.92,27.053,27.053,0,0,1-1.733-9.7,27.053,27.053,0,0,1,1.733-9.7,24.6,24.6,0,0,1,4.8-7.92,22.506,22.506,0,0,1,7.227-5.3,21.362,21.362,0,0,1,9.108-1.931,21,21,0,0,1,8.613,1.633,18.648,18.648,0,0,1,6.336,4.6v-30ZM432.531-7.326a14.92,14.92,0,0,0,5.495-.99,12.28,12.28,0,0,0,4.455-3.019,14.138,14.138,0,0,0,3.02-5.1,21.626,21.626,0,0,0,1.089-7.227,22.659,22.659,0,0,0-1.089-7.524,13.167,13.167,0,0,0-3.02-5,11.27,11.27,0,0,0-4.455-2.772,17.279,17.279,0,0,0-5.495-.841,12.41,12.41,0,0,0-5.445,1.237,13.636,13.636,0,0,0-4.455,3.416A16.451,16.451,0,0,0,419.661-30a18.26,18.26,0,0,0-1.089,6.336,18.26,18.26,0,0,0,1.089,6.336,17.091,17.091,0,0,0,2.97,5.2,13.934,13.934,0,0,0,4.455,3.515A12.016,12.016,0,0,0,432.531-7.326Zm58.212,8.514a24.242,24.242,0,0,1-9.652-1.93,24.862,24.862,0,0,1-7.871-5.3,24.716,24.716,0,0,1-5.3-7.92,24.6,24.6,0,0,1-1.931-9.7,25.755,25.755,0,0,1,1.832-9.7,25.549,25.549,0,0,1,4.95-7.92,23.073,23.073,0,0,1,7.277-5.3,20.9,20.9,0,0,1,8.91-1.931,23.411,23.411,0,0,1,8.96,1.683,18.4,18.4,0,0,1,7.128,5.247,25.281,25.281,0,0,1,4.7,9.058A45.086,45.086,0,0,1,511.434-19.4H476.19a16.188,16.188,0,0,0,2.178,4.8,17.084,17.084,0,0,0,3.514,3.861,15.352,15.352,0,0,0,4.554,2.524,15.8,15.8,0,0,0,5.3.891,17.453,17.453,0,0,0,6.98-1.386,17.412,17.412,0,0,0,5.494-3.663l5.94,5.94a25.827,25.827,0,0,1-8.464,5.544A28.213,28.213,0,0,1,490.743,1.188ZM488.961-39.8a10.6,10.6,0,0,0-4.306.891,13.751,13.751,0,0,0-3.762,2.475,15.272,15.272,0,0,0-2.97,3.762,17.548,17.548,0,0,0-1.832,4.752h25.047a15.314,15.314,0,0,0-1.089-4.554,11.874,11.874,0,0,0-2.475-3.812,11.708,11.708,0,0,0-3.712-2.574A12.021,12.021,0,0,0,488.961-39.8ZM542.817-9.9a10.2,10.2,0,0,0,1.584-1.782,3.872,3.872,0,0,0,.693-2.277,3.555,3.555,0,0,0-1.138-2.673,9.88,9.88,0,0,0-2.772-1.831,17.3,17.3,0,0,0-3.415-1.139q-1.782-.4-2.97-.693a46.105,46.105,0,0,1-6.138-1.931,20.679,20.679,0,0,1-5-2.772,12.484,12.484,0,0,1-3.366-3.861,10.742,10.742,0,0,1-1.237-5.3,11.039,11.039,0,0,1,1.386-5.4,15.384,15.384,0,0,1,3.712-4.455,18.231,18.231,0,0,1,5.445-3.069,19.046,19.046,0,0,1,6.583-1.139,18.971,18.971,0,0,1,5.841.891,19,19,0,0,1,5,2.425,14.9,14.9,0,0,1,3.762,3.712,12.166,12.166,0,0,1,2.029,4.851L544.2-34.254a7.2,7.2,0,0,0-2.574-3.96,8.489,8.489,0,0,0-5.445-1.584,9.513,9.513,0,0,0-2.475.347,8.524,8.524,0,0,0-2.376,1.039,6.882,6.882,0,0,0-1.832,1.683,3.693,3.693,0,0,0-.742,2.277,3.547,3.547,0,0,0,.841,2.376,7.025,7.025,0,0,0,2.03,1.633A12.723,12.723,0,0,0,534.2-29.4q1.386.4,2.574.693a56.962,56.962,0,0,1,8.712,2.772,21.558,21.558,0,0,1,5.544,3.267,10.063,10.063,0,0,1,2.92,3.91,12.97,12.97,0,0,1,.841,4.8,12.732,12.732,0,0,1-1.435,5.94,14.918,14.918,0,0,1-3.96,4.8A18.754,18.754,0,0,1,543.362-.05a24.439,24.439,0,0,1-7.574,1.138,20.115,20.115,0,0,1-10.939-3.02A14.93,14.93,0,0,1,518.364-10l8.118-3.663a9.257,9.257,0,0,0,4.059,4.7,12.45,12.45,0,0,0,5.643,1.237A10.158,10.158,0,0,0,542.817-9.9ZM573.309,0h-9.6V-47.421h9.5Zm-4.851-57.717a5.845,5.845,0,0,1-4.356-1.831,6.091,6.091,0,0,1-1.782-4.406A5.925,5.925,0,0,1,564.1-68.31a5.925,5.925,0,0,1,4.356-1.782,5.925,5.925,0,0,1,4.356,1.782,5.925,5.925,0,0,1,1.782,4.356,6.091,6.091,0,0,1-1.782,4.406A5.845,5.845,0,0,1,568.458-57.717ZM605.682-2.376a22.345,22.345,0,0,1-9.108-1.832,22.3,22.3,0,0,1-7.227-5.049,23.757,23.757,0,0,1-4.8-7.425,23.3,23.3,0,0,1-1.732-8.959,22.932,22.932,0,0,1,1.732-8.91,22.721,22.721,0,0,1,4.8-7.277,22.411,22.411,0,0,1,7.227-4.9,22.881,22.881,0,0,1,9.108-1.782,22.842,22.842,0,0,1,8.613,1.485,19.216,19.216,0,0,1,6.435,4.257l1.98-4.653h7.524v12.672q0,4.158.049,10.4t.049,15.147q0,2.97-.2,5.791a32.313,32.313,0,0,1-.841,5.445,23.275,23.275,0,0,1-1.881,5.049,21.485,21.485,0,0,1-3.317,4.7,19.848,19.848,0,0,1-8.959,5.594,38.025,38.025,0,0,1-10.544,1.435,32.834,32.834,0,0,1-8.959-1.188,32.034,32.034,0,0,1-7.573-3.168V3.762a13.773,13.773,0,0,0,6.188,4.653A24.292,24.292,0,0,0,603.8,10.2a22.534,22.534,0,0,0,6.633-.94,14.916,14.916,0,0,0,5.346-2.871,13.48,13.48,0,0,0,3.614-5A18.269,18.269,0,0,0,620.73-5.94V-7.821a16.211,16.211,0,0,1-2.921,2.079,24.607,24.607,0,0,1-3.762,1.732,29.342,29.342,0,0,1-4.208,1.188A20.761,20.761,0,0,1,605.682-2.376Zm.891-37.422a13.83,13.83,0,0,0-5.445,1.089,14.039,14.039,0,0,0-4.5,3.02,14.039,14.039,0,0,0-3.02,4.5,14.08,14.08,0,0,0-1.089,5.544,14.443,14.443,0,0,0,1.089,5.594,13.9,13.9,0,0,0,3.02,4.554,14.735,14.735,0,0,0,4.5,3.069,13.312,13.312,0,0,0,5.445,1.138,16.528,16.528,0,0,0,5.445-.891,12.182,12.182,0,0,0,4.455-2.673,12.565,12.565,0,0,0,2.97-4.455,16.746,16.746,0,0,0,1.089-6.336,17.737,17.737,0,0,0-1.089-6.584,11.541,11.541,0,0,0-2.97-4.405,11.257,11.257,0,0,0-4.455-2.425A19.554,19.554,0,0,0,606.573-39.8ZM652.014,0h-9.6V-47.421h7.623l1.98,4.158a19.689,19.689,0,0,1,5.742-3.762,17.947,17.947,0,0,1,7.326-1.485,25.088,25.088,0,0,1,5.841.792,16.1,16.1,0,0,1,6.089,2.97,17.135,17.135,0,0,1,4.752,6.039,22.39,22.39,0,0,1,1.93,10V0h-9.108V-28.809a12.835,12.835,0,0,0-.94-5.2,9.234,9.234,0,0,0-2.475-3.416,9.232,9.232,0,0,0-3.465-1.831,14.7,14.7,0,0,0-4.01-.545,13.043,13.043,0,0,0-3.613.594,11.883,11.883,0,0,0-3.812,1.93,11.883,11.883,0,0,0-3.019,3.366,9.439,9.439,0,0,0-1.238,5Z" transform="translate(429 1783)"/>
    <g id="Group_23" data-name="Group 23" transform="translate(-485.401 1100.344)">
      <g id="Group_18" data-name="Group 18" transform="translate(769.773 608.103)">
        <g id="Path_57" data-name="Path 57" transform="translate(61.277 0) rotate(90)">
          <path id="Path_65" data-name="Path 65" d="M32.376,28.773a3.591,3.591,0,0,1-3.589,3.591h0C9.5,32.886-.4,18.337.012,3.591A3.591,3.591,0,0,1,3.6,0H28.779A3.592,3.592,0,0,1,32.37,3.589v0Z" transform="translate(14.307 14.304)" fill="none"/>
          <path id="Path_66" data-name="Path 66" d="M45.631,45.614a3.573,3.573,0,0,1-2.537,1.052c-19.287.521-29.188-14.028-28.772-28.772a3.587,3.587,0,0,1,3.589-3.589H43.094a3.589,3.589,0,0,1,3.589,3.589V43.077a3.573,3.573,0,0,1-1.052,2.537M55.747,55.73a17.771,17.771,0,0,0,5.242-12.653V17.895A17.915,17.915,0,0,0,43.094,0H17.912A17.783,17.783,0,0,0,5.258,5.241,18.8,18.8,0,0,0,.017,17.895,42.42,42.42,0,0,0,12.276,48.937c8.06,8.07,18.783,12.365,31.205,12.03A17.535,17.535,0,0,0,55.747,55.73Z" transform="translate(0 0)" fill="#21c2fd"/>
        </g>
        <g transform="matrix(1, 0, 0, 1, -19, -32.06)" filter="url(#Path_70)">
          <path id="Path_70-2" data-name="Path 70" d="M46.99,34.555c-.062-.047,5.048,2.765,5.444,7.859s-1.609,11.9-8.8,12.278c-7.178.086-17.742.062-25.283,0C5.238,54.779-.491,43.741.033,33.908.181,21.09,7.625,9.276,15.1,3.444c7.156-5.969,20.035-3.991,28.03,4.464,0-.041-28.069-.843-28.537,28.266,0,0-.362,4,4.627,3.872,7.27-.07,25.415.153,25.55-.344C46.857,38.927,47.018,37.059,46.99,34.555Z" transform="translate(19 38.42)" fill="url(#linear-gradient)"/>
        </g>
      </g>
      <g id="Group_16" data-name="Group 16" transform="translate(769.769 656.794)">
        <g id="Path_57-2" data-name="Path 57" transform="translate(0.002 0.131)">
          <path id="Path_65-2" data-name="Path 65" d="M929.815,712.658a3.591,3.591,0,0,1-3.589,3.591h0c-19.286.522-29.187-14.027-28.773-28.773a3.59,3.59,0,0,1,3.589-3.591h25.178a3.592,3.592,0,0,1,3.591,3.589h0Z" transform="translate(-883.132 -669.581)" fill="none"/>
          <path id="Path_66-2" data-name="Path 66" d="M934.071,720.5a3.573,3.573,0,0,1-2.537,1.052c-19.287.521-29.188-14.027-28.772-28.772a3.587,3.587,0,0,1,3.589-3.589h25.183a3.589,3.589,0,0,1,3.589,3.589v25.183a3.573,3.573,0,0,1-1.052,2.537m10.116,10.116a17.771,17.771,0,0,0,5.242-12.653V692.781a17.915,17.915,0,0,0-17.895-17.895H906.351a17.783,17.783,0,0,0-12.654,5.241,18.8,18.8,0,0,0-5.24,12.654,42.808,42.808,0,0,0,12.155,31.251c8.06,8.07,18.887,12.157,31.309,11.821A17.536,17.536,0,0,0,944.187,730.616Z" transform="translate(-888.439 -674.886)" fill="#fec92e"/>
        </g>
        <g transform="matrix(1, 0, 0, 1, -19, -80.75)" filter="url(#Path_68)">
          <path id="Path_68-2" data-name="Path 68" d="M660.3,829.619c-.062.047,5.012-2.79,5.406-7.931s-1.641-11.44-8.786-11.82-17.5-.131-24.991-.068c-13.6-.152-18.774,10.549-18.254,20.472a42.224,42.224,0,0,0,14.288,30.68c7.106,6.024,20.58,4.029,28.519-4.5,0,.041-27.6,1.049-28.519-28.441,0,0-.188-4.057,4.765-3.931,7.218.071,25.235-.155,25.369.347C660.169,825.207,660.433,827.459,660.3,829.619Z" transform="translate(-594.64 -728.91)" fill="url(#linear-gradient-2)"/>
        </g>
      </g>
      <g id="Group_15" data-name="Group 15" transform="translate(816.888 655.223)">
        <g id="Path_57-3" data-name="Path 57" transform="translate(0 0.131)">
          <path id="Path_65-3" data-name="Path 65" d="M897.439,712.658a3.592,3.592,0,0,0,3.589,3.591h0c19.286.521,29.187-14.027,28.773-28.773a3.591,3.591,0,0,0-3.589-3.591H901.036a3.592,3.592,0,0,0-3.591,3.589v0Z" transform="translate(-883.133 -669.581)" fill="none"/>
          <path id="Path_66-3" data-name="Path 66" d="M903.8,720.5a3.574,3.574,0,0,0,2.537,1.052c19.287.521,29.188-14.028,28.772-28.772a3.587,3.587,0,0,0-3.589-3.589H906.334a3.589,3.589,0,0,0-3.589,3.589v25.183A3.574,3.574,0,0,0,903.8,720.5m-10.116,10.116a17.772,17.772,0,0,1-5.242-12.653V692.781a17.915,17.915,0,0,1,17.895-17.895h25.183a17.783,17.783,0,0,1,12.654,5.241,18.8,18.8,0,0,1,5.24,12.654,42.808,42.808,0,0,1-12.155,31.251c-8.06,8.07-18.886,12.157-31.309,11.821A17.535,17.535,0,0,1,893.681,730.616Z" transform="translate(-888.439 -674.886)" fill="#fc491e"/>
        </g>
        <g transform="matrix(1, 0, 0, 1, -66.12, -79.18)" filter="url(#Path_67)">
          <path id="Path_67-2" data-name="Path 67" d="M619.091,829.619c.062.047-5.012-2.79-5.406-7.931s1.641-11.44,8.786-11.82,17.5-.131,24.991-.068c13.6-.152,18.774,10.549,18.254,20.472-.147,12.936-7.252,24.546-14.357,30.57s-20.5,4.2-28.436-4.331c0,.041,27.588.987,28.506-28.5,0,0,.188-4.057-4.765-3.931-7.218.07-25.235-.155-25.369.347C619.223,825.207,618.959,827.459,619.091,829.619Z" transform="translate(-538.64 -730.48)" fill="url(#linear-gradient-3)"/>
        </g>
      </g>
      <g id="Group_14" data-name="Group 14" transform="translate(837.31 587.685)">
        <g id="Path_57-4" data-name="Path 57" transform="translate(60.986 0) rotate(90)">
          <path id="Path_65-4" data-name="Path 65" d="M32.376,3.6A3.592,3.592,0,0,0,28.787.014h0C9.5-.508-.4,14.041.012,28.787A3.591,3.591,0,0,0,3.6,32.378H28.779a3.592,3.592,0,0,0,3.591-3.589v0Z" transform="translate(14.307 14.304)" fill="none"/>
          <path id="Path_66-4" data-name="Path 66" d="M45.631,15.371a3.573,3.573,0,0,0-2.537-1.052C23.807,13.8,13.906,28.347,14.323,43.091a3.587,3.587,0,0,0,3.589,3.589H43.095a3.589,3.589,0,0,0,3.589-3.589V17.908a3.574,3.574,0,0,0-1.052-2.537M55.747,5.256a17.772,17.772,0,0,1,5.242,12.653V43.091A17.915,17.915,0,0,1,43.095,60.986H17.912A17.783,17.783,0,0,1,5.258,55.745,18.8,18.8,0,0,1,.017,43.091,42.419,42.419,0,0,1,12.275,12.048C20.336,3.978,31.059-.317,43.481.018A17.535,17.535,0,0,1,55.747,5.256Z" transform="translate(0 0)" fill="#25bb21"/>
        </g>
        <g transform="matrix(1, 0, 0, 1, -86.54, -11.64)" filter="url(#Path_69)">
          <path id="Path_69-2" data-name="Path 69" d="M46.99,20.193c-.062.047,5.048-2.765,5.444-7.859S50.824.433,43.629.056c-7.177-.086-17.742-.062-25.283,0C5.238-.031-.491,11.008.033,20.841.181,33.658,7.625,45.473,15.1,51.3c7.156,5.969,20.035,3.991,28.03-4.464,0,.041-28.069.843-28.536-28.266,0,0-.362-4,4.627-3.872,7.27.07,25.414-.153,25.55.344C46.857,15.821,47.018,17.689,46.99,20.193Z" transform="translate(147.82 72.75) rotate(-180)" fill="url(#linear-gradient-4)"/>
        </g>
      </g>
    </g>
  </g>
</svg>
