<?xml version="1.0" encoding="UTF-8"?> <svg xmlns="http://www.w3.org/2000/svg" width="1000" height="278" viewBox="0 0 1000 278" fill="none"><g clip-path="url(#clip0_3_44)"><path d="M0.115601 172.422H63.4449C63.4449 172.422 64.485 200.504 41.9499 214.719C19.5304 228.818 0.115601 226.506 0.115601 226.506V277.586C0.115601 277.586 43.5678 279.782 81.2418 248.926C118.916 218.07 116.489 172.422 116.489 172.422V55.2398H0.115601V172.422Z" fill="#1F1D1A" fill-opacity="0.63"></path><path d="M0.115601 172.422L116.489 136.019V55.1242L0.231154 55.3554L0.115601 172.422Z" fill="#1F1D1A"></path><path d="M72.3434 0V116.489L0 172.307V55.1242L72.3434 0Z" fill="#D9D9D9"></path></g><g clip-path="url(#clip1_3_44)"><path d="M193.122 138.327H181.12V76.6016H208.433C211.266 76.6016 213.891 77.1812 216.306 78.3404C218.704 79.4995 220.789 81.0612 222.56 83.0253C224.331 85.0056 225.692 87.2112 226.641 89.6423C227.591 92.0733 228.066 94.5687 228.066 97.1285C228.066 99.7367 227.624 102.24 226.738 104.639C225.837 107.038 224.541 109.139 222.85 110.942C221.176 112.745 219.212 114.138 216.958 115.12L231.037 138.327H217.827L205.124 117.631H193.122V138.327ZM193.122 87.1307V107.126H208.167C209.681 107.126 211.017 106.676 212.176 105.774C213.335 104.872 214.261 103.665 214.953 102.152C215.646 100.654 215.992 98.98 215.992 97.1285C215.992 95.1483 215.589 93.4176 214.784 91.9364C213.963 90.4714 212.933 89.3042 211.693 88.4348C210.437 87.5654 209.085 87.1307 207.636 87.1307H193.122ZM233.91 124.852C233.91 121.89 234.732 119.298 236.374 117.076C238.032 114.838 240.334 113.115 243.28 111.908C246.243 110.684 249.64 110.073 253.471 110.073C255.371 110.073 257.311 110.217 259.291 110.507C261.256 110.797 262.962 111.264 264.411 111.908V109.469C264.411 106.571 263.558 104.341 261.851 102.779C260.145 101.202 257.609 100.413 254.244 100.413C251.749 100.413 249.374 100.848 247.12 101.717C244.85 102.586 242.475 103.866 239.996 105.557L236.253 97.9013C239.264 95.9372 242.347 94.456 245.502 93.4578C248.658 92.4758 251.974 91.9847 255.452 91.9847C261.956 91.9847 267.019 93.6108 270.642 96.8629C274.264 100.099 276.075 104.736 276.075 110.773V125.287C276.075 126.51 276.293 127.38 276.727 127.895C277.162 128.41 277.87 128.732 278.852 128.861V138.327C277.806 138.504 276.864 138.649 276.027 138.762C275.19 138.875 274.481 138.931 273.902 138.931C271.583 138.931 269.829 138.408 268.637 137.361C267.446 136.331 266.705 135.059 266.415 133.546L266.15 131.203C264.186 133.747 261.722 135.719 258.76 137.12C255.814 138.504 252.803 139.197 249.728 139.197C246.718 139.197 244.005 138.577 241.59 137.337C239.191 136.081 237.307 134.367 235.939 132.193C234.587 130.02 233.91 127.573 233.91 124.852ZM262.238 127.194C262.882 126.502 263.405 125.81 263.807 125.118C264.21 124.425 264.411 123.789 264.411 123.21V118.597C263.027 118.018 261.521 117.567 259.895 117.245C258.269 116.923 256.732 116.762 255.283 116.762C252.272 116.762 249.793 117.414 247.845 118.718C245.913 120.022 244.947 121.745 244.947 123.886C244.947 125.045 245.261 126.148 245.889 127.194C246.533 128.241 247.466 129.086 248.69 129.73C249.897 130.358 251.346 130.672 253.037 130.672C254.775 130.672 256.482 130.342 258.156 129.682C259.831 129.006 261.191 128.177 262.238 127.194ZM329.276 109.904V138.327H317.612V112.777C317.612 109.123 316.976 106.45 315.704 104.76C314.432 103.085 312.669 102.248 310.416 102.248C308.838 102.248 307.252 102.651 305.658 103.456C304.064 104.277 302.631 105.396 301.36 106.812C300.088 108.229 299.162 109.863 298.582 111.715V138.327H286.942V92.7817H297.447V101.21C298.607 99.2295 300.088 97.5632 301.891 96.2109C303.678 94.8424 305.747 93.7959 308.097 93.0715C310.448 92.347 312.927 91.9847 315.535 91.9847C318.369 91.9847 320.703 92.4919 322.539 93.5061C324.358 94.5204 325.75 95.8808 326.716 97.5874C327.666 99.31 328.326 101.242 328.697 103.383C329.083 105.524 329.276 107.698 329.276 109.904ZM336.666 115.554C336.666 111.143 337.535 107.159 339.274 103.601C341.013 100.026 343.42 97.201 346.495 95.1241C349.554 93.0312 353.055 91.9847 357 91.9847C360.364 91.9847 363.391 92.8139 366.08 94.4721C368.785 96.1143 370.885 98.2153 372.383 100.775V74.8629H384.047V125.287C384.047 126.51 384.248 127.38 384.651 127.895C385.053 128.41 385.745 128.732 386.727 128.861V138.327C384.699 138.73 383.049 138.931 381.777 138.931C379.7 138.931 377.977 138.408 376.609 137.361C375.24 136.331 374.476 134.971 374.315 133.28L374.122 130.406C372.447 133.256 370.177 135.429 367.311 136.927C364.446 138.44 361.443 139.197 358.304 139.197C355.18 139.197 352.299 138.585 349.658 137.361C347.018 136.154 344.732 134.48 342.8 132.338C340.852 130.181 339.338 127.669 338.26 124.804C337.197 121.938 336.666 118.855 336.666 115.554ZM372.383 121.64V110.773C371.803 109.082 370.877 107.577 369.606 106.257C368.334 104.921 366.917 103.858 365.355 103.069C363.794 102.297 362.224 101.91 360.646 101.91C358.859 101.91 357.241 102.28 355.792 103.021C354.343 103.778 353.079 104.792 352.001 106.064C350.938 107.352 350.125 108.833 349.562 110.507C349.014 112.182 348.741 113.953 348.741 115.82C348.741 117.672 349.046 119.418 349.658 121.061C350.27 122.719 351.155 124.16 352.315 125.383C353.474 126.591 354.818 127.541 356.348 128.233C357.893 128.941 359.559 129.295 361.347 129.295C362.457 129.295 363.576 129.102 364.703 128.716C365.83 128.346 366.901 127.822 367.915 127.146C368.929 126.486 369.831 125.681 370.62 124.731C371.393 123.765 371.98 122.735 372.383 121.64ZM416.552 139.197C412.849 139.197 409.516 138.577 406.554 137.337C403.608 136.081 401.104 134.351 399.044 132.145C396.983 129.956 395.405 127.436 394.31 124.586C393.199 121.753 392.644 118.766 392.644 115.627C392.644 112.439 393.199 109.429 394.31 106.595C395.405 103.762 396.983 101.242 399.044 99.0363C401.104 96.8307 403.608 95.1081 406.554 93.8684C409.516 92.6126 412.849 91.9847 416.552 91.9847C420.271 91.9847 423.587 92.6126 426.501 93.8684C429.432 95.1081 431.943 96.8307 434.036 99.0363C436.113 101.242 437.691 103.762 438.769 106.595C439.848 109.429 440.387 112.439 440.387 115.627C440.387 118.766 439.848 121.753 438.769 124.586C437.691 127.436 436.129 129.956 434.084 132.145C432.024 134.351 429.512 136.081 426.55 137.337C423.604 138.577 420.271 139.197 416.552 139.197ZM404.646 115.627C404.646 118.299 405.17 120.666 406.216 122.727C407.262 124.788 408.679 126.398 410.466 127.557C412.269 128.716 414.298 129.295 416.552 129.295C418.758 129.295 420.762 128.7 422.565 127.508C424.352 126.317 425.785 124.691 426.864 122.63C427.926 120.57 428.458 118.211 428.458 115.554C428.458 112.946 427.926 110.596 426.864 108.503C425.785 106.426 424.352 104.808 422.565 103.649C420.762 102.49 418.758 101.91 416.552 101.91C414.298 101.91 412.269 102.498 410.466 103.673C408.679 104.864 407.262 106.49 406.216 108.551C405.17 110.612 404.646 112.971 404.646 115.627ZM518.969 109.904V138.327H507.329V112.777C507.329 109.171 506.701 106.515 505.446 104.808C504.206 103.101 502.483 102.248 500.278 102.248C498.024 102.248 495.866 103.134 493.806 104.905C491.745 106.676 490.28 108.978 489.41 111.811V138.327H477.77V112.777C477.77 109.123 477.143 106.45 475.887 104.76C474.647 103.085 472.924 102.248 470.719 102.248C468.465 102.248 466.308 103.118 464.247 104.856C462.186 106.595 460.721 108.881 459.852 111.715V138.327H448.212V92.7817H458.717V101.21C460.455 98.2475 462.774 95.9694 465.672 94.3755C468.57 92.7817 471.902 91.9847 475.669 91.9847C479.437 91.9847 482.383 92.9105 484.508 94.7619C486.617 96.6295 487.962 98.9236 488.541 101.644C490.393 98.5051 492.751 96.1143 495.617 94.4721C498.499 92.8139 501.735 91.9847 505.325 91.9847C508.158 91.9847 510.461 92.4919 512.232 93.5061C514.003 94.5204 515.379 95.8808 516.361 97.5874C517.343 99.31 518.027 101.242 518.414 103.383C518.784 105.524 518.969 107.698 518.969 109.904ZM577.483 138.762C572.959 138.762 568.854 137.877 565.167 136.106C561.496 134.335 558.341 131.976 555.7 129.03C553.06 126.068 551.015 122.719 549.566 118.984C548.117 115.249 547.393 111.409 547.393 107.464C547.393 103.343 548.166 99.4147 549.711 95.6796C551.241 91.9445 553.35 88.6119 556.038 85.6818C558.743 82.7516 561.931 80.4333 565.602 78.7267C569.288 77.0202 573.337 76.1669 577.749 76.1669C582.208 76.1669 586.273 77.0685 589.944 78.8716C593.631 80.6587 596.778 83.0575 599.387 86.0681C601.995 89.0949 604.023 92.4597 605.472 96.1626C606.921 99.8655 607.646 103.689 607.646 107.634C607.646 111.691 606.889 115.587 605.376 119.322C603.878 123.073 601.777 126.406 599.073 129.32C596.384 132.25 593.196 134.56 589.509 136.25C585.839 137.925 581.83 138.762 577.483 138.762ZM577.556 128.16C580.453 128.16 583.037 127.565 585.307 126.373C587.561 125.182 589.445 123.588 590.958 121.592C592.456 119.595 593.599 117.366 594.388 114.902C595.176 112.439 595.571 109.96 595.571 107.464C595.571 104.792 595.144 102.216 594.291 99.7367C593.454 97.2412 592.271 95.0356 590.741 93.1198C589.196 91.2039 587.312 89.6664 585.09 88.5072C582.852 87.3481 580.341 86.7685 577.556 86.7685C574.609 86.7685 572.017 87.3642 569.779 88.5555C567.558 89.7469 565.69 91.3408 564.177 93.3371C562.663 95.3334 561.52 97.5471 560.748 99.9782C559.959 102.425 559.564 104.921 559.564 107.464C559.564 110.137 559.975 112.713 560.796 115.192C561.601 117.688 562.768 119.893 564.298 121.809C565.843 123.725 567.727 125.263 569.948 126.422C572.186 127.581 574.722 128.16 577.556 128.16ZM596.682 138.327L576.348 115.458H587.65L607.984 138.327H596.682ZM615.204 121.278V92.7817H626.868V118.766C626.868 122.244 627.504 124.868 628.776 126.639C630.048 128.41 631.932 129.295 634.427 129.295C635.924 129.295 637.414 128.99 638.895 128.378C640.376 127.766 641.736 126.848 642.976 125.625C644.232 124.417 645.294 122.888 646.164 121.036V92.7817H657.804V125.287C657.804 126.51 658.021 127.38 658.456 127.895C658.891 128.41 659.599 128.732 660.581 128.861V138.327C659.422 138.504 658.456 138.633 657.683 138.714C656.894 138.81 656.186 138.859 655.558 138.859C653.465 138.859 651.766 138.376 650.462 137.41C649.158 136.46 648.394 135.14 648.168 133.449L647.903 129.803C645.874 132.878 643.266 135.212 640.078 136.806C636.89 138.4 633.381 139.197 629.549 139.197C624.864 139.197 621.298 137.675 618.851 134.632C616.42 131.59 615.204 127.138 615.204 121.278ZM690.405 139.197C686.703 139.197 683.37 138.577 680.408 137.337C677.461 136.081 674.958 134.351 672.897 132.145C670.836 129.956 669.259 127.436 668.164 124.586C667.053 121.753 666.498 118.766 666.498 115.627C666.498 112.439 667.053 109.429 668.164 106.595C669.259 103.762 670.836 101.242 672.897 99.0363C674.958 96.8307 677.461 95.1081 680.408 93.8684C683.37 92.6126 686.703 91.9847 690.405 91.9847C694.124 91.9847 697.441 92.6126 700.355 93.8684C703.285 95.1081 705.797 96.8307 707.89 99.0363C709.966 101.242 711.544 103.762 712.623 106.595C713.701 109.429 714.241 112.439 714.241 115.627C714.241 118.766 713.701 121.753 712.623 124.586C711.544 127.436 709.982 129.956 707.938 132.145C705.877 134.351 703.366 136.081 700.403 137.337C697.457 138.577 694.124 139.197 690.405 139.197ZM678.5 115.627C678.5 118.299 679.023 120.666 680.069 122.727C681.116 124.788 682.533 126.398 684.32 127.557C686.123 128.716 688.151 129.295 690.405 129.295C692.611 129.295 694.615 128.7 696.419 127.508C698.206 126.317 699.638 124.691 700.717 122.63C701.78 120.57 702.311 118.211 702.311 115.554C702.311 112.946 701.78 110.596 700.717 108.503C699.638 106.426 698.206 104.808 696.419 103.649C694.615 102.49 692.611 101.91 690.405 101.91C688.151 101.91 686.123 102.498 684.32 103.673C682.533 104.864 681.116 106.49 680.069 108.551C679.023 110.612 678.5 112.971 678.5 115.627ZM746.311 126.76L748.654 135.985C747.672 136.387 746.488 136.846 745.104 137.361C743.703 137.893 742.206 138.319 740.612 138.641C739.018 138.947 737.408 139.1 735.782 139.1C733.641 139.1 731.677 138.73 729.89 137.989C728.086 137.233 726.646 136.025 725.567 134.367C724.504 132.725 723.973 130.567 723.973 127.895V101.717H717.96V92.7817H723.973V78.0023H735.613V92.7817H745.176V101.717H735.613V123.983C735.677 125.544 736.112 126.671 736.917 127.364C737.738 128.072 738.752 128.426 739.96 128.426C741.183 128.426 742.375 128.217 743.534 127.798C744.693 127.396 745.619 127.05 746.311 126.76ZM751.624 124.852C751.624 121.89 752.445 119.298 754.087 117.076C755.745 114.838 758.048 113.115 760.994 111.908C763.956 110.684 767.353 110.073 771.185 110.073C773.085 110.073 775.025 110.217 777.005 110.507C778.969 110.797 780.676 111.264 782.125 111.908V109.469C782.125 106.571 781.271 104.341 779.565 102.779C777.858 101.202 775.323 100.413 771.958 100.413C769.462 100.413 767.088 100.848 764.834 101.717C762.564 102.586 760.189 103.866 757.71 105.557L753.966 97.9013C756.977 95.9372 760.06 94.456 763.216 93.4578C766.371 92.4758 769.688 91.9847 773.165 91.9847C779.669 91.9847 784.733 93.6108 788.355 96.8629C791.978 100.099 793.789 104.736 793.789 110.773V125.287C793.789 126.51 794.006 127.38 794.441 127.895C794.875 128.41 795.584 128.732 796.566 128.861V138.327C795.519 138.504 794.578 138.649 793.74 138.762C792.903 138.875 792.195 138.931 791.615 138.931C789.297 138.931 787.542 138.408 786.351 137.361C785.159 136.331 784.419 135.059 784.129 133.546L783.863 131.203C781.899 133.747 779.436 135.719 776.474 137.12C773.527 138.504 770.517 139.197 767.442 139.197C764.431 139.197 761.718 138.577 759.303 137.337C756.905 136.081 755.021 134.367 753.653 132.193C752.3 130.02 751.624 127.573 751.624 124.852ZM779.951 127.194C780.595 126.502 781.118 125.81 781.521 125.118C781.923 124.425 782.125 123.789 782.125 123.21V118.597C780.74 118.018 779.235 117.567 777.609 117.245C775.983 116.923 774.445 116.762 772.996 116.762C769.986 116.762 767.506 117.414 765.558 118.718C763.626 120.022 762.66 121.745 762.66 123.886C762.66 125.045 762.974 126.148 763.602 127.194C764.246 128.241 765.18 129.086 766.403 129.73C767.611 130.358 769.06 130.672 770.75 130.672C772.489 130.672 774.196 130.342 775.87 129.682C777.544 129.006 778.905 128.177 779.951 127.194ZM829.168 126.76L831.51 135.985C830.528 136.387 829.337 136.846 827.936 137.361C826.551 137.893 825.062 138.319 823.468 138.641C821.874 138.947 820.264 139.1 818.638 139.1C816.497 139.1 814.525 138.73 812.722 137.989C810.935 137.233 809.502 136.025 808.423 134.367C807.361 132.725 806.829 130.567 806.829 127.895V101.717H800.816V92.7817H806.829V78.0023H818.469V92.7817H828.033V101.717H818.469V123.983C818.534 125.544 818.968 126.671 819.773 127.364C820.578 128.072 821.593 128.426 822.816 128.426C824.04 128.426 825.231 128.217 826.39 127.798C827.549 127.396 828.475 127.05 829.168 126.76ZM849.236 138.327H837.596V92.7817H849.236V138.327ZM849.236 86.4304H837.596V74.8629H849.236V86.4304ZM880.799 139.197C877.096 139.197 873.763 138.577 870.801 137.337C867.855 136.081 865.351 134.351 863.291 132.145C861.23 129.956 859.652 127.436 858.557 124.586C857.446 121.753 856.891 118.766 856.891 115.627C856.891 112.439 857.446 109.429 858.557 106.595C859.652 103.762 861.23 101.242 863.291 99.0363C865.351 96.8307 867.855 95.1081 870.801 93.8684C873.763 92.6126 877.096 91.9847 880.799 91.9847C884.518 91.9847 887.834 92.6126 890.748 93.8684C893.678 95.1081 896.19 96.8307 898.283 99.0363C900.36 101.242 901.938 103.762 903.016 106.595C904.095 109.429 904.634 112.439 904.634 115.627C904.634 118.766 904.095 121.753 903.016 124.586C901.938 127.436 900.376 129.956 898.331 132.145C896.27 134.351 893.759 136.081 890.797 137.337C887.85 138.577 884.518 139.197 880.799 139.197ZM868.893 115.627C868.893 118.299 869.416 120.666 870.463 122.727C871.509 124.788 872.926 126.398 874.713 127.557C876.516 128.716 878.545 129.295 880.799 129.295C883.004 129.295 885.009 128.7 886.812 127.508C888.599 126.317 890.032 124.691 891.111 122.63C892.173 120.57 892.704 118.211 892.704 115.554C892.704 112.946 892.173 110.596 891.111 108.503C890.032 106.426 888.599 104.808 886.812 103.649C885.009 102.49 883.004 101.91 880.799 101.91C878.545 101.91 876.516 102.498 874.713 103.673C872.926 104.864 871.509 106.49 870.463 108.551C869.416 110.612 868.893 112.971 868.893 115.627ZM954.792 109.904V138.327H943.128V112.777C943.128 109.123 942.492 106.45 941.22 104.76C939.949 103.085 938.186 102.248 935.932 102.248C934.354 102.248 932.768 102.651 931.174 103.456C929.58 104.277 928.148 105.396 926.876 106.812C925.604 108.229 924.678 109.863 924.099 111.715V138.327H912.459V92.7817H922.964V101.21C924.123 99.2295 925.604 97.5632 927.407 96.2109C929.194 94.8424 931.263 93.7959 933.613 93.0715C935.964 92.347 938.443 91.9847 941.051 91.9847C943.885 91.9847 946.219 92.4919 948.055 93.5061C949.874 94.5204 951.267 95.8808 952.233 97.5874C953.182 99.31 953.843 101.242 954.213 103.383C954.599 105.524 954.792 107.698 954.792 109.904ZM981.743 139.197C977.863 139.197 974.152 138.561 970.61 137.289C967.068 136.017 964.025 134.133 961.482 131.638L965.66 124.079C968.38 126.269 971.061 127.887 973.701 128.933C976.342 129.98 978.877 130.503 981.308 130.503C983.562 130.503 985.373 130.1 986.742 129.295C988.094 128.474 988.771 127.251 988.771 125.625C988.771 124.53 988.4 123.677 987.66 123.065C986.903 122.453 985.816 121.922 984.399 121.471C982.967 121.004 981.236 120.481 979.207 119.901C975.859 118.791 973.049 117.72 970.779 116.69C968.525 115.643 966.835 114.323 965.708 112.729C964.565 111.135 963.993 109.091 963.993 106.595C963.993 103.584 964.766 100.992 966.312 98.819C967.841 96.6456 969.982 94.9471 972.735 93.7235C975.488 92.516 978.724 91.9123 982.443 91.9123C985.679 91.9123 988.746 92.4194 991.644 93.4337C994.542 94.448 997.182 96.0821 999.565 98.336L994.856 105.726C992.538 103.923 990.34 102.602 988.263 101.765C986.17 100.928 984.053 100.509 981.912 100.509C980.689 100.509 979.545 100.654 978.483 100.944C977.404 101.234 976.535 101.709 975.875 102.369C975.199 103.045 974.86 103.987 974.86 105.194C974.86 106.305 975.166 107.167 975.778 107.778C976.39 108.374 977.316 108.905 978.555 109.372C979.811 109.839 981.333 110.362 983.12 110.942C986.774 111.988 989.865 113.059 992.393 114.154C994.904 115.265 996.804 116.617 998.092 118.211C999.364 119.805 1000 121.986 1000 124.755C1000 129.279 998.35 132.821 995.049 135.381C991.733 137.925 987.297 139.197 981.743 139.197Z" fill="#1F1D1A"></path></g><path d="M192.531 204H190.5V177.262H181.242V175.445H201.789V177.262H192.531V204ZM207.512 173.609V183.531C207.512 184.104 207.499 184.638 207.473 185.133C207.46 185.628 207.434 186.129 207.395 186.637H207.531C207.883 185.829 208.384 185.107 209.035 184.469C209.699 183.831 210.513 183.323 211.477 182.945C212.453 182.568 213.579 182.379 214.855 182.379C216.47 182.379 217.824 182.659 218.918 183.219C220.025 183.766 220.865 184.605 221.438 185.738C222.01 186.871 222.297 188.329 222.297 190.113V204H220.344V190.23C220.344 188.121 219.862 186.572 218.898 185.582C217.935 184.592 216.535 184.098 214.699 184.098C213.137 184.098 211.822 184.404 210.754 185.016C209.686 185.615 208.879 186.526 208.332 187.75C207.785 188.961 207.512 190.478 207.512 192.301V204H205.539V173.609H207.512ZM246.789 193.355C246.789 194.996 246.587 196.493 246.184 197.848C245.78 199.189 245.181 200.348 244.387 201.324C243.592 202.301 242.603 203.056 241.418 203.59C240.246 204.124 238.879 204.391 237.316 204.391C235.832 204.391 234.51 204.13 233.352 203.609C232.193 203.076 231.21 202.32 230.402 201.344C229.608 200.367 229.003 199.208 228.586 197.867C228.169 196.513 227.961 195.009 227.961 193.355C227.961 191.077 228.339 189.117 229.094 187.477C229.862 185.823 230.956 184.56 232.375 183.688C233.807 182.802 235.52 182.359 237.512 182.359C239.569 182.359 241.281 182.828 242.648 183.766C244.029 184.69 245.064 185.979 245.754 187.633C246.444 189.286 246.789 191.194 246.789 193.355ZM229.992 193.355C229.992 195.217 230.259 196.845 230.793 198.238C231.327 199.632 232.134 200.719 233.215 201.5C234.309 202.281 235.689 202.672 237.355 202.672C239.061 202.672 240.461 202.281 241.555 201.5C242.648 200.719 243.456 199.625 243.977 198.219C244.497 196.812 244.758 195.191 244.758 193.355C244.758 191.572 244.51 189.983 244.016 188.59C243.521 187.197 242.74 186.103 241.672 185.309C240.604 184.501 239.211 184.098 237.492 184.098C235.031 184.098 233.163 184.918 231.887 186.559C230.624 188.199 229.992 190.465 229.992 193.355ZM269.152 182.77V204H267.551L267.258 200.172H267.141C266.776 200.953 266.262 201.663 265.598 202.301C264.934 202.939 264.12 203.447 263.156 203.824C262.193 204.202 261.073 204.391 259.797 204.391C258.169 204.391 256.802 204.111 255.695 203.551C254.602 202.978 253.775 202.118 253.215 200.973C252.655 199.827 252.375 198.395 252.375 196.676V182.77H254.348V196.48C254.348 198.603 254.823 200.165 255.773 201.168C256.737 202.171 258.143 202.672 259.992 202.672C261.555 202.672 262.863 202.372 263.918 201.773C264.986 201.174 265.793 200.27 266.34 199.059C266.9 197.835 267.18 196.311 267.18 194.488V182.77H269.152ZM289.562 198.434C289.562 199.697 289.243 200.777 288.605 201.676C287.98 202.561 287.062 203.238 285.852 203.707C284.641 204.163 283.15 204.391 281.379 204.391C279.908 204.391 278.592 204.26 277.434 204C276.275 203.74 275.305 203.421 274.523 203.043V201.09C275.5 201.572 276.581 201.962 277.766 202.262C278.951 202.561 280.168 202.711 281.418 202.711C283.605 202.711 285.181 202.34 286.145 201.598C287.108 200.855 287.59 199.84 287.59 198.551C287.59 197.704 287.349 197.008 286.867 196.461C286.398 195.901 285.721 195.419 284.836 195.016C283.951 194.612 282.883 194.202 281.633 193.785C280.331 193.342 279.172 192.906 278.156 192.477C277.154 192.034 276.366 191.454 275.793 190.738C275.22 190.009 274.934 189.02 274.934 187.77C274.934 186.064 275.617 184.736 276.984 183.785C278.352 182.835 280.188 182.359 282.492 182.359C283.768 182.359 284.953 182.483 286.047 182.73C287.154 182.965 288.156 183.271 289.055 183.648L288.352 185.328C287.544 184.951 286.613 184.645 285.559 184.41C284.504 184.176 283.449 184.059 282.395 184.059C280.663 184.059 279.309 184.365 278.332 184.977C277.355 185.589 276.867 186.487 276.867 187.672C276.867 188.583 277.102 189.299 277.57 189.82C278.039 190.328 278.71 190.758 279.582 191.109C280.454 191.448 281.49 191.826 282.688 192.242C283.924 192.672 285.064 193.121 286.105 193.59C287.16 194.059 288 194.664 288.625 195.406C289.25 196.148 289.562 197.158 289.562 198.434ZM302.336 182.398C304.667 182.398 306.411 182.984 307.57 184.156C308.729 185.328 309.309 187.197 309.309 189.762V204H307.785L307.434 200.289H307.316C306.861 201.083 306.307 201.793 305.656 202.418C305.005 203.03 304.204 203.512 303.254 203.863C302.316 204.215 301.171 204.391 299.816 204.391C298.449 204.391 297.277 204.163 296.301 203.707C295.337 203.251 294.589 202.587 294.055 201.715C293.534 200.842 293.273 199.781 293.273 198.531C293.273 196.422 294.146 194.82 295.891 193.727C297.635 192.62 300.142 191.995 303.41 191.852L307.355 191.656V190.113C307.355 187.939 306.926 186.389 306.066 185.465C305.207 184.54 303.938 184.078 302.258 184.078C301.164 184.078 300.109 184.221 299.094 184.508C298.091 184.781 297.069 185.178 296.027 185.699L295.402 184.059C296.418 183.577 297.505 183.18 298.664 182.867C299.836 182.555 301.06 182.398 302.336 182.398ZM307.336 193.199L303.625 193.355C300.93 193.486 298.879 193.967 297.473 194.801C296.066 195.634 295.363 196.884 295.363 198.551C295.363 199.892 295.78 200.921 296.613 201.637C297.46 202.353 298.632 202.711 300.129 202.711C302.46 202.711 304.237 202.047 305.461 200.719C306.698 199.391 307.323 197.581 307.336 195.289V193.199ZM325.48 182.359C327.863 182.359 329.693 182.984 330.969 184.234C332.245 185.484 332.883 187.444 332.883 190.113V204H330.93V190.23C330.93 188.121 330.448 186.572 329.484 185.582C328.521 184.592 327.121 184.098 325.285 184.098C322.954 184.098 321.171 184.781 319.934 186.148C318.71 187.503 318.098 189.553 318.098 192.301V204H316.125V182.77H317.727L318.02 186.637H318.137C318.514 185.842 319.029 185.126 319.68 184.488C320.344 183.837 321.158 183.323 322.121 182.945C323.085 182.555 324.204 182.359 325.48 182.359ZM347.453 204.391C344.549 204.391 342.336 203.479 340.812 201.656C339.302 199.82 338.547 197.151 338.547 193.648C338.547 189.977 339.348 187.177 340.949 185.25C342.551 183.323 344.784 182.359 347.648 182.359C348.872 182.359 349.934 182.548 350.832 182.926C351.743 183.303 352.505 183.818 353.117 184.469C353.742 185.107 354.224 185.836 354.562 186.656H354.719C354.667 185.966 354.628 185.224 354.602 184.43C354.576 183.635 354.562 182.906 354.562 182.242V173.609H356.535V204H354.934L354.68 200.113H354.562C354.211 200.895 353.723 201.611 353.098 202.262C352.486 202.913 351.717 203.434 350.793 203.824C349.868 204.202 348.755 204.391 347.453 204.391ZM347.668 202.672C350.168 202.672 351.945 201.897 353 200.348C354.055 198.785 354.582 196.559 354.582 193.668V193.355C354.582 190.361 354.055 188.069 353 186.48C351.945 184.879 350.227 184.078 347.844 184.078C345.487 184.078 343.684 184.898 342.434 186.539C341.197 188.18 340.578 190.562 340.578 193.688C340.578 196.63 341.158 198.863 342.316 200.387C343.488 201.91 345.272 202.672 347.668 202.672ZM376.867 198.434C376.867 199.697 376.548 200.777 375.91 201.676C375.285 202.561 374.367 203.238 373.156 203.707C371.945 204.163 370.454 204.391 368.684 204.391C367.212 204.391 365.897 204.26 364.738 204C363.579 203.74 362.609 203.421 361.828 203.043V201.09C362.805 201.572 363.885 201.962 365.07 202.262C366.255 202.561 367.473 202.711 368.723 202.711C370.91 202.711 372.486 202.34 373.449 201.598C374.413 200.855 374.895 199.84 374.895 198.551C374.895 197.704 374.654 197.008 374.172 196.461C373.703 195.901 373.026 195.419 372.141 195.016C371.255 194.612 370.188 194.202 368.938 193.785C367.635 193.342 366.477 192.906 365.461 192.477C364.458 192.034 363.671 191.454 363.098 190.738C362.525 190.009 362.238 189.02 362.238 187.77C362.238 186.064 362.922 184.736 364.289 183.785C365.656 182.835 367.492 182.359 369.797 182.359C371.073 182.359 372.258 182.483 373.352 182.73C374.458 182.965 375.461 183.271 376.359 183.648L375.656 185.328C374.849 184.951 373.918 184.645 372.863 184.41C371.809 184.176 370.754 184.059 369.699 184.059C367.967 184.059 366.613 184.365 365.637 184.977C364.66 185.589 364.172 186.487 364.172 187.672C364.172 188.583 364.406 189.299 364.875 189.82C365.344 190.328 366.014 190.758 366.887 191.109C367.759 191.448 368.794 191.826 369.992 192.242C371.229 192.672 372.368 193.121 373.41 193.59C374.465 194.059 375.305 194.664 375.93 195.406C376.555 196.148 376.867 197.158 376.867 198.434ZM410.227 193.355C410.227 194.996 410.025 196.493 409.621 197.848C409.217 199.189 408.618 200.348 407.824 201.324C407.03 202.301 406.04 203.056 404.855 203.59C403.684 204.124 402.316 204.391 400.754 204.391C399.27 204.391 397.948 204.13 396.789 203.609C395.63 203.076 394.647 202.32 393.84 201.344C393.046 200.367 392.44 199.208 392.023 197.867C391.607 196.513 391.398 195.009 391.398 193.355C391.398 191.077 391.776 189.117 392.531 187.477C393.299 185.823 394.393 184.56 395.812 183.688C397.245 182.802 398.957 182.359 400.949 182.359C403.007 182.359 404.719 182.828 406.086 183.766C407.466 184.69 408.501 185.979 409.191 187.633C409.882 189.286 410.227 191.194 410.227 193.355ZM393.43 193.355C393.43 195.217 393.697 196.845 394.23 198.238C394.764 199.632 395.572 200.719 396.652 201.5C397.746 202.281 399.126 202.672 400.793 202.672C402.499 202.672 403.898 202.281 404.992 201.5C406.086 200.719 406.893 199.625 407.414 198.219C407.935 196.812 408.195 195.191 408.195 193.355C408.195 191.572 407.948 189.983 407.453 188.59C406.958 187.197 406.177 186.103 405.109 185.309C404.042 184.501 402.648 184.098 400.93 184.098C398.469 184.098 396.6 184.918 395.324 186.559C394.061 188.199 393.43 190.465 393.43 193.355ZM423.996 184.41H418.996V204H417.023V184.41H413.078V183.238L417.023 182.73V180.387C417.023 178.824 417.245 177.529 417.688 176.5C418.143 175.458 418.827 174.684 419.738 174.176C420.663 173.655 421.828 173.395 423.234 173.395C423.964 173.395 424.621 173.453 425.207 173.57C425.793 173.674 426.34 173.811 426.848 173.98L426.398 175.641C425.943 175.484 425.435 175.354 424.875 175.25C424.328 175.146 423.788 175.094 423.254 175.094C421.757 175.094 420.669 175.51 419.992 176.344C419.328 177.164 418.996 178.505 418.996 180.367V182.77H423.996V184.41ZM463.039 189.684C463.039 192.132 462.694 194.352 462.004 196.344C461.314 198.336 460.279 199.996 458.898 201.324C457.531 202.639 455.812 203.525 453.742 203.98L459.855 210.797H457.023L451.555 204.332C451.346 204.332 451.132 204.339 450.91 204.352C450.702 204.378 450.487 204.391 450.266 204.391C448.13 204.391 446.262 204.033 444.66 203.316C443.059 202.6 441.724 201.591 440.656 200.289C439.602 198.974 438.807 197.418 438.273 195.621C437.74 193.811 437.473 191.819 437.473 189.645C437.473 186.754 437.961 184.208 438.938 182.008C439.927 179.807 441.379 178.089 443.293 176.852C445.22 175.615 447.596 174.996 450.422 174.996C453.13 174.996 455.422 175.589 457.297 176.773C459.185 177.945 460.611 179.632 461.574 181.832C462.551 184.02 463.039 186.637 463.039 189.684ZM439.582 189.664C439.582 192.216 439.966 194.469 440.734 196.422C441.503 198.362 442.681 199.879 444.27 200.973C445.858 202.066 447.863 202.613 450.285 202.613C452.733 202.613 454.745 202.073 456.32 200.992C457.896 199.911 459.061 198.401 459.816 196.461C460.572 194.521 460.949 192.262 460.949 189.684C460.949 185.608 460.057 182.444 458.273 180.191C456.503 177.939 453.885 176.812 450.422 176.812C447.987 176.812 445.962 177.353 444.348 178.434C442.746 179.514 441.548 181.018 440.754 182.945C439.973 184.872 439.582 187.112 439.582 189.664ZM485.598 182.77V204H483.996L483.703 200.172H483.586C483.221 200.953 482.707 201.663 482.043 202.301C481.379 202.939 480.565 203.447 479.602 203.824C478.638 204.202 477.518 204.391 476.242 204.391C474.615 204.391 473.247 204.111 472.141 203.551C471.047 202.978 470.22 202.118 469.66 200.973C469.1 199.827 468.82 198.395 468.82 196.676V182.77H470.793V196.48C470.793 198.603 471.268 200.165 472.219 201.168C473.182 202.171 474.589 202.672 476.438 202.672C478 202.672 479.309 202.372 480.363 201.773C481.431 201.174 482.238 200.27 482.785 199.059C483.345 197.835 483.625 196.311 483.625 194.488V182.77H485.598ZM510.344 193.355C510.344 194.996 510.142 196.493 509.738 197.848C509.335 199.189 508.736 200.348 507.941 201.324C507.147 202.301 506.158 203.056 504.973 203.59C503.801 204.124 502.434 204.391 500.871 204.391C499.387 204.391 498.065 204.13 496.906 203.609C495.747 203.076 494.764 202.32 493.957 201.344C493.163 200.367 492.557 199.208 492.141 197.867C491.724 196.513 491.516 195.009 491.516 193.355C491.516 191.077 491.893 189.117 492.648 187.477C493.417 185.823 494.51 184.56 495.93 183.688C497.362 182.802 499.074 182.359 501.066 182.359C503.124 182.359 504.836 182.828 506.203 183.766C507.583 184.69 508.618 185.979 509.309 187.633C509.999 189.286 510.344 191.194 510.344 193.355ZM493.547 193.355C493.547 195.217 493.814 196.845 494.348 198.238C494.882 199.632 495.689 200.719 496.77 201.5C497.863 202.281 499.243 202.672 500.91 202.672C502.616 202.672 504.016 202.281 505.109 201.5C506.203 200.719 507.01 199.625 507.531 198.219C508.052 196.812 508.312 195.191 508.312 193.355C508.312 191.572 508.065 189.983 507.57 188.59C507.076 187.197 506.294 186.103 505.227 185.309C504.159 184.501 502.766 184.098 501.047 184.098C498.586 184.098 496.717 184.918 495.441 186.559C494.178 188.199 493.547 190.465 493.547 193.355ZM521.945 202.691C522.557 202.691 523.124 202.646 523.645 202.555C524.178 202.464 524.647 202.346 525.051 202.203V203.844C524.634 203.987 524.146 204.111 523.586 204.215C523.026 204.332 522.408 204.391 521.73 204.391C520.533 204.391 519.536 204.169 518.742 203.727C517.948 203.271 517.349 202.587 516.945 201.676C516.542 200.751 516.34 199.579 516.34 198.16V184.41H513.176V183.238L516.32 182.633L517.004 177.633H518.312V182.77H524.934V184.41H518.312V198.043C518.312 199.566 518.592 200.725 519.152 201.52C519.725 202.301 520.656 202.691 521.945 202.691ZM537.648 182.359C539.458 182.359 540.962 182.783 542.16 183.629C543.371 184.475 544.27 185.634 544.855 187.105C545.454 188.577 545.754 190.263 545.754 192.164V193.59H530.422C530.422 196.507 531.092 198.746 532.434 200.309C533.788 201.871 535.721 202.652 538.234 202.652C539.549 202.652 540.689 202.548 541.652 202.34C542.629 202.118 543.71 201.747 544.895 201.227V203.043C543.853 203.512 542.811 203.85 541.77 204.059C540.728 204.28 539.53 204.391 538.176 204.391C536.027 204.391 534.224 203.948 532.766 203.062C531.32 202.164 530.227 200.901 529.484 199.273C528.755 197.646 528.391 195.745 528.391 193.57C528.391 191.448 528.742 189.54 529.445 187.848C530.161 186.155 531.203 184.82 532.57 183.844C533.951 182.854 535.643 182.359 537.648 182.359ZM537.629 184.059C535.598 184.059 533.951 184.736 532.688 186.09C531.438 187.431 530.702 189.371 530.48 191.91H543.703C543.703 190.361 543.482 188.993 543.039 187.809C542.596 186.624 541.926 185.706 541.027 185.055C540.142 184.391 539.009 184.059 537.629 184.059ZM564.875 198.434C564.875 199.697 564.556 200.777 563.918 201.676C563.293 202.561 562.375 203.238 561.164 203.707C559.953 204.163 558.462 204.391 556.691 204.391C555.22 204.391 553.905 204.26 552.746 204C551.587 203.74 550.617 203.421 549.836 203.043V201.09C550.812 201.572 551.893 201.962 553.078 202.262C554.263 202.561 555.48 202.711 556.73 202.711C558.918 202.711 560.493 202.34 561.457 201.598C562.421 200.855 562.902 199.84 562.902 198.551C562.902 197.704 562.661 197.008 562.18 196.461C561.711 195.901 561.034 195.419 560.148 195.016C559.263 194.612 558.195 194.202 556.945 193.785C555.643 193.342 554.484 192.906 553.469 192.477C552.466 192.034 551.678 191.454 551.105 190.738C550.533 190.009 550.246 189.02 550.246 187.77C550.246 186.064 550.93 184.736 552.297 183.785C553.664 182.835 555.5 182.359 557.805 182.359C559.081 182.359 560.266 182.483 561.359 182.73C562.466 182.965 563.469 183.271 564.367 183.648L563.664 185.328C562.857 184.951 561.926 184.645 560.871 184.41C559.816 184.176 558.762 184.059 557.707 184.059C555.975 184.059 554.621 184.365 553.645 184.977C552.668 185.589 552.18 186.487 552.18 187.672C552.18 188.583 552.414 189.299 552.883 189.82C553.352 190.328 554.022 190.758 554.895 191.109C555.767 191.448 556.802 191.826 558 192.242C559.237 192.672 560.376 193.121 561.418 193.59C562.473 194.059 563.312 194.664 563.938 195.406C564.562 196.148 564.875 197.158 564.875 198.434ZM586.359 202.691C586.971 202.691 587.538 202.646 588.059 202.555C588.592 202.464 589.061 202.346 589.465 202.203V203.844C589.048 203.987 588.56 204.111 588 204.215C587.44 204.332 586.822 204.391 586.145 204.391C584.947 204.391 583.951 204.169 583.156 203.727C582.362 203.271 581.763 202.587 581.359 201.676C580.956 200.751 580.754 199.579 580.754 198.16V184.41H577.59V183.238L580.734 182.633L581.418 177.633H582.727V182.77H589.348V184.41H582.727V198.043C582.727 199.566 583.007 200.725 583.566 201.52C584.139 202.301 585.07 202.691 586.359 202.691ZM611.633 193.355C611.633 194.996 611.431 196.493 611.027 197.848C610.624 199.189 610.025 200.348 609.23 201.324C608.436 202.301 607.447 203.056 606.262 203.59C605.09 204.124 603.723 204.391 602.16 204.391C600.676 204.391 599.354 204.13 598.195 203.609C597.036 203.076 596.053 202.32 595.246 201.344C594.452 200.367 593.846 199.208 593.43 197.867C593.013 196.513 592.805 195.009 592.805 193.355C592.805 191.077 593.182 189.117 593.938 187.477C594.706 185.823 595.799 184.56 597.219 183.688C598.651 182.802 600.363 182.359 602.355 182.359C604.413 182.359 606.125 182.828 607.492 183.766C608.872 184.69 609.908 185.979 610.598 187.633C611.288 189.286 611.633 191.194 611.633 193.355ZM594.836 193.355C594.836 195.217 595.103 196.845 595.637 198.238C596.171 199.632 596.978 200.719 598.059 201.5C599.152 202.281 600.533 202.672 602.199 202.672C603.905 202.672 605.305 202.281 606.398 201.5C607.492 200.719 608.299 199.625 608.82 198.219C609.341 196.812 609.602 195.191 609.602 193.355C609.602 191.572 609.354 189.983 608.859 188.59C608.365 187.197 607.583 186.103 606.516 185.309C605.448 184.501 604.055 184.098 602.336 184.098C599.875 184.098 598.007 184.918 596.73 186.559C595.467 188.199 594.836 190.465 594.836 193.355ZM643.996 204H628.391V175.445H643.996V177.262H630.402V188.082H643.234V189.898H630.402V202.184H643.996V204ZM655.148 193.082L647.746 182.77H650.051L656.34 191.734L662.629 182.77H664.914L657.57 193.082L665.383 204H663.059L656.34 194.469L649.66 204H647.395L655.148 193.082ZM679.328 182.359C682.062 182.359 684.178 183.277 685.676 185.113C687.186 186.949 687.941 189.658 687.941 193.238C687.941 195.634 687.583 197.665 686.867 199.332C686.151 200.986 685.129 202.242 683.801 203.102C682.486 203.961 680.904 204.391 679.055 204.391C677.779 204.391 676.665 204.202 675.715 203.824C674.777 203.434 673.996 202.913 673.371 202.262C672.746 201.598 672.264 200.868 671.926 200.074H671.789C671.828 200.816 671.861 201.591 671.887 202.398C671.913 203.206 671.926 203.967 671.926 204.684V213.395H669.934V182.77H671.574L671.809 187.008H671.926C672.277 186.201 672.772 185.439 673.41 184.723C674.048 184.007 674.855 183.434 675.832 183.004C676.809 182.574 677.974 182.359 679.328 182.359ZM679.074 184.098C677.473 184.098 676.138 184.449 675.07 185.152C674.016 185.842 673.228 186.858 672.707 188.199C672.199 189.527 671.939 191.155 671.926 193.082V193.414C671.926 195.484 672.18 197.21 672.688 198.59C673.208 199.957 673.983 200.979 675.012 201.656C676.053 202.333 677.342 202.672 678.879 202.672C680.389 202.672 681.665 202.301 682.707 201.559C683.749 200.816 684.543 199.742 685.09 198.336C685.637 196.93 685.91 195.224 685.91 193.219C685.91 190.237 685.337 187.971 684.191 186.422C683.059 184.872 681.353 184.098 679.074 184.098ZM695.754 204H693.762V173.609H695.754V204ZM720.422 193.355C720.422 194.996 720.22 196.493 719.816 197.848C719.413 199.189 718.814 200.348 718.02 201.324C717.225 202.301 716.236 203.056 715.051 203.59C713.879 204.124 712.512 204.391 710.949 204.391C709.465 204.391 708.143 204.13 706.984 203.609C705.826 203.076 704.842 202.32 704.035 201.344C703.241 200.367 702.635 199.208 702.219 197.867C701.802 196.513 701.594 195.009 701.594 193.355C701.594 191.077 701.971 189.117 702.727 187.477C703.495 185.823 704.589 184.56 706.008 183.688C707.44 182.802 709.152 182.359 711.145 182.359C713.202 182.359 714.914 182.828 716.281 183.766C717.661 184.69 718.697 185.979 719.387 187.633C720.077 189.286 720.422 191.194 720.422 193.355ZM703.625 193.355C703.625 195.217 703.892 196.845 704.426 198.238C704.96 199.632 705.767 200.719 706.848 201.5C707.941 202.281 709.322 202.672 710.988 202.672C712.694 202.672 714.094 202.281 715.188 201.5C716.281 200.719 717.089 199.625 717.609 198.219C718.13 196.812 718.391 195.191 718.391 193.355C718.391 191.572 718.143 189.983 717.648 188.59C717.154 187.197 716.372 186.103 715.305 185.309C714.237 184.501 712.844 184.098 711.125 184.098C708.664 184.098 706.796 184.918 705.52 186.559C704.257 188.199 703.625 190.465 703.625 193.355ZM734.738 182.398C735.298 182.398 735.826 182.431 736.32 182.496C736.815 182.561 737.277 182.652 737.707 182.77L737.395 184.586C736.965 184.469 736.529 184.384 736.086 184.332C735.643 184.267 735.168 184.234 734.66 184.234C733.658 184.234 732.759 184.423 731.965 184.801C731.184 185.178 730.52 185.719 729.973 186.422C729.426 187.125 729.009 187.971 728.723 188.961C728.436 189.951 728.293 191.057 728.293 192.281V204H726.301V182.77H728L728.195 186.773H728.312C728.638 185.953 729.094 185.217 729.68 184.566C730.279 183.902 731.001 183.375 731.848 182.984C732.694 182.594 733.658 182.398 734.738 182.398ZM749.914 182.359C751.724 182.359 753.228 182.783 754.426 183.629C755.637 184.475 756.535 185.634 757.121 187.105C757.72 188.577 758.02 190.263 758.02 192.164V193.59H742.688C742.688 196.507 743.358 198.746 744.699 200.309C746.053 201.871 747.987 202.652 750.5 202.652C751.815 202.652 752.954 202.548 753.918 202.34C754.895 202.118 755.975 201.747 757.16 201.227V203.043C756.118 203.512 755.077 203.85 754.035 204.059C752.993 204.28 751.796 204.391 750.441 204.391C748.293 204.391 746.49 203.948 745.031 203.062C743.586 202.164 742.492 200.901 741.75 199.273C741.021 197.646 740.656 195.745 740.656 193.57C740.656 191.448 741.008 189.54 741.711 187.848C742.427 186.155 743.469 184.82 744.836 183.844C746.216 182.854 747.909 182.359 749.914 182.359ZM749.895 184.059C747.863 184.059 746.216 184.736 744.953 186.09C743.703 187.431 742.967 189.371 742.746 191.91H755.969C755.969 190.361 755.747 188.993 755.305 187.809C754.862 186.624 754.191 185.706 753.293 185.055C752.408 184.391 751.275 184.059 749.895 184.059ZM765.91 196.637H764.445L764.016 175.445H766.34L765.91 196.637ZM763.547 202.613C763.547 202.04 763.677 201.604 763.938 201.305C764.198 200.992 764.589 200.836 765.109 200.836C765.656 200.836 766.06 200.992 766.32 201.305C766.581 201.604 766.711 202.04 766.711 202.613C766.711 203.186 766.581 203.629 766.32 203.941C766.06 204.254 765.656 204.41 765.109 204.41C764.589 204.41 764.198 204.254 763.938 203.941C763.677 203.629 763.547 203.186 763.547 202.613Z" fill="black"></path><defs><clipPath id="clip0_3_44"><rect width="116.521" height="277.717" fill="white"></rect></clipPath><clipPath id="clip1_3_44"><rect width="818.88" height="64.3338" fill="white" transform="translate(181.12 74.8629)"></rect></clipPath></defs></svg> 